<svg width="264" height="224" viewBox="0 0 264 224" fill="none" xmlns="http://www.w3.org/2000/svg">
<path fill-rule="evenodd" clip-rule="evenodd" d="M136.836 157.742L136.757 157.756L136.249 158.007L136.105 158.036L136.005 158.007L135.496 157.756C135.42 157.733 135.362 157.745 135.324 157.792L135.295 157.864L135.174 160.931L135.209 161.075L135.281 161.168L136.026 161.698L136.134 161.727L136.22 161.698L136.965 161.168L137.051 161.053L137.08 160.931L136.958 157.871C136.939 157.795 136.898 157.752 136.836 157.742ZM138.735 156.932L138.642 156.947L137.316 157.613L137.245 157.685L137.223 157.764L137.352 160.845L137.388 160.931L137.445 160.981L138.886 161.648C138.977 161.672 139.046 161.653 139.094 161.591L139.122 161.49L138.879 157.09C138.855 157.004 138.807 156.951 138.735 156.932ZM133.611 156.947C133.58 156.928 133.542 156.921 133.506 156.929C133.47 156.937 133.438 156.959 133.418 156.99L133.375 157.09L133.131 161.49C133.136 161.576 133.176 161.634 133.253 161.662L133.36 161.648L134.801 160.981L134.873 160.924L134.901 160.845L135.023 157.764L135.002 157.678L134.93 157.606L133.611 156.947Z" fill="white"/>
<path fill-rule="evenodd" clip-rule="evenodd" d="M120.081 1L129.111 6.418C140.564 13.1882 149.362 23.6656 154.051 36.1167C155.642 32.5333 157.534 29.0575 159.289 25.5458L166.32 32.5763C182.101 48.3573 197.086 72.0073 197.086 94.9765C197.086 125.779 178.095 145.308 147.708 148.684L137.746 149.787L139.925 140.005C141.624 132.351 141.932 127.348 141.573 123.844C141.143 119.436 139.051 115.975 136.442 112.535C133.948 109.238 131.476 105.934 129.498 102.286C121.363 108.715 118.21 114.52 117.2 119.3C115.91 125.42 117.737 131.677 121.077 138.356L126.968 150.138L113.881 148.684C95.4201 146.634 77.2311 134.3 70.0644 116.305C62.5752 97.4777 67.8714 74.6948 92.0661 53.7252C108.119 39.8147 116.619 21.7762 120.081 1ZM129.627 24.65C124.166 39.9867 113.681 53.9617 101.447 64.5612C80.5851 82.6427 78.7146 99.2765 83.3872 111.001C86.8631 119.744 94.3666 126.933 103.26 131.01C102.221 126.181 102.192 121.189 103.174 116.348C105.511 105.268 113.48 94.8833 128.788 85.3158L136.507 80.4927L139.388 89.1285C141.91 96.6965 147.142 102.05 151.234 108.693C155.735 116.003 156.595 124.388 155.677 132.759C174.454 128.065 182.753 113.825 182.753 94.9765C182.753 79.0522 173.15 63.4288 163.618 51.2168C159.691 60.0175 151.413 63.1135 143.336 67.1555V55.5598C143.336 45.7487 139.345 33.7875 129.627 24.6572V24.65Z" fill="white"/>
<path d="M11.221 209.971C8.36349 209.971 6.01706 209.297 4.18174 207.95C2.34642 206.579 1.35907 204.627 1.21968 202.095H8.50288C8.57257 202.955 8.82813 203.582 9.26953 203.977C9.71094 204.372 10.2801 204.569 10.9771 204.569C11.6043 204.569 12.1154 204.418 12.5104 204.116C12.9286 203.791 13.1376 203.35 13.1376 202.792C13.1376 202.072 12.8008 201.514 12.1271 201.119C11.4533 200.724 10.3614 200.283 8.85136 199.795C7.24836 199.261 5.94737 198.75 4.9484 198.262C3.97266 197.751 3.11308 197.019 2.36965 196.066C1.64947 195.091 1.28937 193.825 1.28937 192.268C1.28937 190.688 1.68431 189.341 2.4742 188.226C3.26408 187.087 4.35598 186.228 5.7499 185.647C7.14381 185.066 8.72358 184.776 10.4892 184.776C13.3467 184.776 15.6235 185.449 17.3194 186.797C19.0385 188.121 19.9562 189.991 20.0724 192.407H12.6498C12.6265 191.664 12.3942 191.106 11.9528 190.735C11.5346 190.363 10.9887 190.177 10.315 190.177C9.80387 190.177 9.38569 190.328 9.06044 190.63C8.7352 190.932 8.57257 191.362 8.57257 191.92C8.57257 192.384 8.74681 192.791 9.09529 193.139C9.467 193.464 9.92003 193.755 10.4544 194.01C10.9887 194.243 11.7786 194.545 12.824 194.916C14.3806 195.451 15.6583 195.985 16.6573 196.519C17.6795 197.031 18.5507 197.762 19.2709 198.715C20.0143 199.644 20.386 200.829 20.386 202.269C20.386 203.733 20.0143 205.046 19.2709 206.207C18.5507 207.369 17.4936 208.286 16.0997 208.96C14.729 209.634 13.1028 209.971 11.221 209.971ZM22.4461 199.935C22.4461 197.913 22.8062 196.148 23.5264 194.638C24.2698 193.128 25.2688 191.966 26.5233 191.153C27.8011 190.34 29.2182 189.933 30.7747 189.933C32.1222 189.933 33.2838 190.2 34.2595 190.735C35.2353 191.269 35.9903 191.989 36.5246 192.895V190.177H43.3548V209.727H36.5246V207.009C35.9903 207.915 35.2237 208.635 34.2247 209.169C33.2489 209.704 32.099 209.971 30.7747 209.971C29.2182 209.971 27.8011 209.564 26.5233 208.751C25.2688 207.938 24.2698 206.776 23.5264 205.266C22.8062 203.733 22.4461 201.956 22.4461 199.935ZM36.5246 199.935C36.5246 198.68 36.1762 197.693 35.4792 196.972C34.8055 196.252 33.9691 195.892 32.9702 195.892C31.948 195.892 31.1 196.252 30.4263 196.972C29.7525 197.669 29.4157 198.657 29.4157 199.935C29.4157 201.189 29.7525 202.188 30.4263 202.931C31.1 203.652 31.948 204.012 32.9702 204.012C33.9691 204.012 34.8055 203.652 35.4792 202.931C36.1762 202.211 36.5246 201.212 36.5246 199.935ZM53.7286 204.047H62.0572V209.727H46.2015V204.325L53.9725 195.857H46.2712V190.177H61.7785V195.579L53.7286 204.047ZM74.0043 209.971C72.0529 209.971 70.2988 209.564 68.7423 208.751C67.209 207.938 66.0009 206.776 65.1181 205.266C64.2353 203.756 63.7939 201.979 63.7939 199.935C63.7939 197.913 64.2353 196.148 65.1181 194.638C66.0242 193.128 67.2439 191.966 68.7772 191.153C70.3337 190.34 72.0877 189.933 74.0392 189.933C75.9907 189.933 77.7331 190.34 79.2664 191.153C80.8229 191.966 82.0426 193.128 82.9254 194.638C83.8314 196.148 84.2845 197.913 84.2845 199.935C84.2845 201.956 83.8314 203.733 82.9254 205.266C82.0426 206.776 80.8229 207.938 79.2664 208.751C77.7098 209.564 75.9558 209.971 74.0043 209.971ZM74.0043 204.047C74.9568 204.047 75.7467 203.698 76.374 203.001C77.0245 202.281 77.3497 201.259 77.3497 199.935C77.3497 198.61 77.0245 197.6 76.374 196.903C75.7467 196.206 74.9685 195.857 74.0392 195.857C73.1099 195.857 72.3316 196.206 71.7044 196.903C71.0771 197.6 70.7635 198.61 70.7635 199.935C70.7635 201.282 71.0655 202.304 71.6695 203.001C72.2736 203.698 73.0518 204.047 74.0043 204.047ZM99.8525 190.003C102.106 190.003 103.895 190.758 105.219 192.268C106.543 193.755 107.205 195.776 107.205 198.332V209.727H100.375V199.238C100.375 198.122 100.085 197.251 99.504 196.624C98.9232 195.974 98.1449 195.648 97.1692 195.648C96.147 195.648 95.3455 195.974 94.7647 196.624C94.1839 197.251 93.8935 198.122 93.8935 199.238V209.727H87.0633V190.177H93.8935V192.965C94.4975 192.082 95.3106 191.374 96.3328 190.839C97.355 190.282 98.5282 190.003 99.8525 190.003Z" fill="#FF642F"/>
<path d="M130.363 193.348C130.363 194.835 130.015 196.194 129.318 197.426C128.644 198.634 127.61 199.609 126.217 200.353C124.846 201.073 123.162 201.433 121.164 201.433H117.783V209.727H110.953V185.159H121.164C123.138 185.159 124.811 185.508 126.182 186.204C127.576 186.901 128.621 187.866 129.318 189.097C130.015 190.328 130.363 191.745 130.363 193.348ZM120.501 195.997C122.43 195.997 123.394 195.114 123.394 193.348C123.394 191.559 122.43 190.665 120.501 190.665H117.783V195.997H120.501ZM151.786 199.725C151.786 200.26 151.751 200.794 151.681 201.328H138.753C138.822 202.397 139.113 203.199 139.624 203.733C140.158 204.244 140.832 204.5 141.645 204.5C142.783 204.5 143.597 203.989 144.084 202.966H151.368C151.066 204.314 150.473 205.522 149.59 206.59C148.731 207.636 147.639 208.461 146.315 209.065C144.991 209.669 143.527 209.971 141.924 209.971C139.996 209.971 138.276 209.564 136.766 208.751C135.28 207.938 134.106 206.776 133.247 205.266C132.41 203.756 131.992 201.979 131.992 199.935C131.992 197.89 132.41 196.125 133.247 194.638C134.083 193.128 135.245 191.966 136.732 191.153C138.242 190.34 139.972 189.933 141.924 189.933C143.852 189.933 145.56 190.328 147.047 191.118C148.533 191.908 149.695 193.046 150.531 194.533C151.368 195.997 151.786 197.728 151.786 199.725ZM144.816 198.018C144.816 197.182 144.537 196.531 143.98 196.066C143.422 195.579 142.725 195.335 141.889 195.335C141.053 195.335 140.367 195.567 139.833 196.032C139.299 196.473 138.95 197.135 138.788 198.018H144.816ZM161.411 193.627C162.178 192.512 163.107 191.629 164.199 190.979C165.291 190.328 166.464 190.003 167.719 190.003V197.286H165.802C164.315 197.286 163.212 197.577 162.491 198.157C161.771 198.738 161.411 199.749 161.411 201.189V209.727H154.581V190.177H161.411V193.627ZM190.17 190.177V209.727H183.305V206.939C182.724 207.822 181.923 208.542 180.9 209.1C179.878 209.634 178.705 209.901 177.381 209.901C175.104 209.901 173.304 209.158 171.979 207.671C170.678 206.161 170.028 204.116 170.028 201.538V190.177H176.823V200.666C176.823 201.781 177.114 202.664 177.694 203.315C178.298 203.942 179.088 204.256 180.064 204.256C181.063 204.256 181.853 203.942 182.434 203.315C183.015 202.664 183.305 201.781 183.305 200.666V190.177H190.17ZM192.942 199.935C192.942 197.913 193.302 196.148 194.022 194.638C194.766 193.128 195.765 191.966 197.019 191.153C198.297 190.34 199.714 189.933 201.271 189.933C202.618 189.933 203.78 190.2 204.755 190.735C205.731 191.269 206.486 191.989 207.021 192.895V190.177H213.851V209.727H207.021V207.009C206.486 207.915 205.72 208.635 204.721 209.169C203.745 209.704 202.595 209.971 201.271 209.971C199.714 209.971 198.297 209.564 197.019 208.751C195.765 207.938 194.766 206.776 194.022 205.266C193.302 203.733 192.942 201.956 192.942 199.935ZM207.021 199.935C207.021 198.68 206.672 197.693 205.975 196.972C205.301 196.252 204.465 195.892 203.466 195.892C202.444 195.892 201.596 196.252 200.922 196.972C200.248 197.669 199.912 198.657 199.912 199.935C199.912 201.189 200.248 202.188 200.922 202.931C201.596 203.652 202.444 204.012 203.466 204.012C204.465 204.012 205.301 203.652 205.975 202.931C206.672 202.211 207.021 201.212 207.021 199.935ZM230.532 190.003C232.785 190.003 234.574 190.758 235.899 192.268C237.223 193.755 237.885 195.776 237.885 198.332V209.727H231.055V199.238C231.055 198.122 230.764 197.251 230.183 196.624C229.603 195.974 228.824 195.648 227.849 195.648C226.826 195.648 226.025 195.974 225.444 196.624C224.863 197.251 224.573 198.122 224.573 199.238V209.727H217.743V190.177H224.573V192.965C225.177 192.082 225.99 191.374 227.012 190.839C228.035 190.282 229.208 190.003 230.532 190.003ZM240.518 199.935C240.518 197.913 240.878 196.148 241.598 194.638C242.341 193.128 243.34 191.966 244.595 191.153C245.872 190.34 247.29 189.933 248.846 189.933C250.194 189.933 251.355 190.2 252.331 190.735C253.307 191.269 254.062 191.989 254.596 192.895V190.177H261.426V209.727H254.596V207.009C254.062 207.915 253.295 208.635 252.296 209.169C251.32 209.704 250.17 209.971 248.846 209.971C247.29 209.971 245.872 209.564 244.595 208.751C243.34 207.938 242.341 206.776 241.598 205.266C240.878 203.733 240.518 201.956 240.518 199.935ZM254.596 199.935C254.596 198.68 254.248 197.693 253.551 196.972C252.877 196.252 252.041 195.892 251.042 195.892C250.019 195.892 249.171 196.252 248.498 196.972C247.824 197.669 247.487 198.657 247.487 199.935C247.487 201.189 247.824 202.188 248.498 202.931C249.171 203.652 250.019 204.012 251.042 204.012C252.041 204.012 252.877 203.652 253.551 202.931C254.248 202.211 254.596 201.212 254.596 199.935Z" fill="#F8F8F8"/>
</svg>
